<svg width="32" height="32" viewBox="0 0 32 32" fill="none" xmlns="http://www.w3.org/2000/svg">
<path id="icon-logo-scroll" fill="currentColor" d="M31.5 9.563v.313c-.313 0-.563.063-.75.25-.25.125-.438.313-.625.625-.125.25-.313.75-.563 1.563l-3.5 10.188h-.375l-2.875-8.063-2.875 8.063h-.313l-3.813-10.5c-.25-.813-.438-1.25-.5-1.375-.125-.25-.313-.438-.5-.5-.25-.188-.563-.188-.875-.188v-.375h4.625v.313h-.188c-.313 0-.563.063-.75.25s-.25.313-.25.563c0 .188.125.688.375 1.5l2.563 7 2.063-6-.375-1.063-.313-.875a3.345 3.345 0 0 0-.438-.813c-.125-.125-.188-.188-.313-.25a1.92 1.92 0 0 0-.438-.313c-.125 0-.313-.063-.563-.063V9.5h4.938v.375h-.313c-.375 0-.625.063-.813.25a.793.793 0 0 0-.25.563c0 .313.125.875.438 1.688l2.438 6.813 2.375-6.938c.25-.75.438-1.313.438-1.563a1.17 1.17 0 0 0-.125-.438c-.125-.125-.188-.188-.375-.25-.188-.125-.5-.125-.938-.125v-.313zM7.563 22.188c-2.5 0-4.313-.688-5.5-2C1 19 .5 17.5.5 15.75c0-1.313.25-2.438.875-3.438s1.438-1.75 2.375-2.125c1-.438 2.438-.688 4.313-.688h5.063v.375h-.438c-.5 0-.875.125-1.125.438-.188.188-.25.688-.25 1.438v8.125c0 .688.063 1.188.188 1.375.25.375.625.5 1.125.5h.5v.375zm2-11.625c-.688-.188-1.313-.313-1.875-.313-1.5 0-2.688.5-3.625 1.5-1 1-1.5 2.375-1.5 4.125S3.063 19 4.063 20c.938 1 2.125 1.5 3.563 1.5.563 0 1.188-.125 2-.25V10.562z"></path>
</svg>