<svg width="24" height="22" viewBox="0 0 24 22" fill="none" xmlns="http://www.w3.org/2000/svg">
<path id="icon-cart" fill="currentColor" d="m8.375 18c1.1390873 0 2.0625.9234127 2.0625 2.0625s-.9234127 2.0625-2.0625 2.0625-2.0625-.9234127-2.0625-2.0625.9234127-2.0625 2.0625-2.0625zm9.75 0c1.1390873 0 2.0625.9234127 2.0625 2.0625s-.9234127 2.0625-2.0625 2.0625-2.0625-.9234127-2.0625-2.0625.9234127-2.0625 2.0625-2.0625zm-9.75 1.125c-.51776695 0-.9375.419733-.9375.9375s.41973305.9375.9375.9375.9375-.419733.9375-.9375-.41973305-.9375-.9375-.9375zm9.75 0c-.517767 0-.9375.419733-.9375.9375s.419733.9375.9375.9375.9375-.419733.9375-.9375-.419733-.9375-.9375-.9375zm-13.43581327-17.625 1.5 6h17.59124037l-3.375 10.125h-12.84461383l-3.75-15h-3.31081327v-1.125zm17.53038617 7.125h-15.74913617l1.96875 7.875h11.15538617z"></path>
</svg>
